:SAMPLES-PER-SECOND 30
:FULLY-SPECIFIED
:DEGREES
415
root  -2.82961 40.744 1.88124 -174.064 -68.0056 177.089
RightUpLeg  -6.76994 0.64121 -4.80645
RightLeg  4.14021 -1.40398 -2.91972
RightFoot  0.0898914 -0.671641 6.70933
RightToes  -3.10096e-008 1.75238e-005 3.56266e-009
Spine  5.75211 -10.3773 -12.6182
Spine1  11.4817 -15.4841 14.4117
HEad  -31.5315 28.4894 -16.6607
LeftShoulder1  3.22996 -9.70395 -17.8518
LeftArm  70.8972 -75.3091 -91.8569
LeftForeArm  -38.3054 -45.1231 -13.3041
LeftHand  0.535454 -3.97762 -6.36827
RightShoulder  5.13967 9.88656 32.4743
RightArm  -9.90301 -24.4044 42.4184
RightForeArm  -30.3567 26.2202 7.01342
RightHand  -0.355708 2.03932 -5.73869
LeftUpLeg  0.636525 0.335912 -2.11831
LeftLeg  -2.4554 33.9769 -3.28866
LeftFoot  -1.26803 -0.0981827 1.20186
LeftToes  4.7633e-008 1.48299e-008 1.30754e-009
416
root  -2.98308 40.7876 1.5567 -174.094 -70.8902 176.726
RightUpLeg  -5.12474 -0.0174886 -4.58162
RightLeg  3.71404 -3.597 -2.72937
RightFoot  -0.351288 -0.617797 6.38934
RightToes  -3.10096e-008 1.75238e-005 3.56266e-009
Spine  5.439 -10.4628 -11.9454
Spine1  9.33421 -15.2801 14.8968
HEad  -30.3906 25.8344 -16.5215
LeftShoulder1  2.97291 -8.93963 -17.2387
LeftArm  46.3496 -79.081 -66.5909
LeftForeArm  -38.44 -42.8445 -12.3652
LeftHand  0.398216 -3.21109 -5.12828
RightShoulder  5.03797 9.74531 32.1166
RightArm  -11.335 -27.4015 42.1206
RightForeArm  -29.6519 26.6672 7.09586
RightHand  -0.368174 2.07848 -5.90587
LeftUpLeg  1.5524 0.329937 -1.67933
LeftLeg  -2.96385 31.174 -3.18927
LeftFoot  -0.960335 -0.0623645 0.75083
LeftToes  4.7633e-008 1.48299e-008 1.30754e-009
417
root  -3.14934 40.8282 1.20747 -173.48 -73.9127 175.892
RightUpLeg  -3.65957 -0.700526 -4.478
RightLeg  3.2727 -5.85196 -2.345
RightFoot  -0.798632 -0.550748 5.90321
RightToes  -3.10096e-008 1.75238e-005 3.56266e-009
Spine  4.42306 -10.4234 -11.5767
Spine1  7.81315 -14.9923 15.5354
HEad  -29.8323 23.2203 -16.3244
LeftShoulder1  2.6325 -7.7845 -16.6323
LeftArm  14.2396 -79.3994 -34.0892
LeftForeArm  -38.5381 -39.3021 -11.0738
LeftHand  0.224629 -2.31639 -3.21858
RightShoulder  4.94516 9.67913 31.5947
RightArm  -12.5829 -29.4934 42.0035
RightForeArm  -29.4809 26.4527 7.0372
RightHand  -0.348669 2.06913 -5.61059
LeftUpLeg  2.29393 0.302826 -1.25806
LeftLeg  -3.61184 28.3228 -3.16945
LeftFoot  -0.549619 -0.0299399 0.352303
LeftToes  4.7633e-008 1.48299e-008 1.30754e-009
418
root  -3.33057 40.8664 0.852954 -172.697 -76.7194 174.729
RightUpLeg  -2.00429 -1.3637 -4.38128
RightLeg  2.67224 -7.84543 -1.81307
RightFoot  -1.1731 -0.483533 5.34142
RightToes  -3.10096e-008 1.75238e-005 3.56266e-009
Spine  3.25716 -9.75748 -11.7494
Spine1  7.03433 -14.3171 16.7965
HEad  -29.0204 19.3064 -16.1392
LeftShoulder1  2.29743 -6.52106 -16.1657
LeftArm  -10.7525 -77.7723 -11.3026
LeftForeArm  -35.1466 -33.405 -9.08647
LeftHand  0.175772 -1.94029 -2.62725
RightShoulder  4.69923 9.38798 30.5301
RightArm  -13.5887 -31.1601 42.1774
RightForeArm  -28.7563 26.5851 7.04231
RightHand  -0.363218 1.95703 -5.91601
LeftUpLeg  3.22274 0.244356 -0.863929
LeftLeg  -4.28923 25.7255 -3.03389
LeftFoot  -0.116928 0.00306862 -0.0240594
LeftToes  4.7633e-008 1.48299e-008 1.30754e-009
419
root  -3.52809 40.8991 0.502625 -171.66 -79.6013 173.464
RightUpLeg  -0.43725 -1.93869 -4.17255
RightLeg  1.91742 -10.0297 -1.16491
RightFoot  -1.47319 -0.442725 5.00698
RightToes  -3.10096e-008 1.75238e-005 3.56266e-009
Spine  1.40061 -9.05812 -11.0705
Spine1  6.88145 -13.2369 16.372
HEad  -28.8214 15.1314 -15.7394
LeftShoulder1  2.01001 -5.67093 -15.093
LeftArm  -27.8168 -74.8694 0.336232
LeftForeArm  -32.536 -27.8133 -7.46282
LeftHand  0.110594 -1.22679 -1.82964
RightShoulder  4.60303 9.18099 30.362
RightArm  -13.6333 -32.53 41.8211
RightForeArm  -28.4999 26.7756 7.07892
RightHand  -0.363651 2.2599 -5.70952
LeftUpLeg  3.8923 0.42451 -0.218583
LeftLeg  -4.76505 22.7461 -2.93028
LeftFoot  0.18463 0.053631 -0.542945
LeftToes  4.7633e-008 1.48299e-008 1.30754e-009
420
root  -3.73302 40.9237 0.176527 -170.263 -82.0607 171.926
RightUpLeg  0.977216 -2.29595 -3.8591
RightLeg  1.069 -11.9688 -0.550661
RightFoot  -1.68713 -0.396823 4.56016
RightToes  -3.10096e-008 1.75238e-005 3.56266e-009
Spine  0.0538639 -8.15723 -10.2923
Spine1  6.04374 -11.9454 16.083
HEad  -28.0638 11.3931 -15.2027
LeftShoulder1  1.978 -5.43673 -15.3096
LeftArm  -41.4388 -69.8324 4.77265
LeftForeArm  -32.068 -25.9289 -6.99533
LeftHand  -0.00255272 -0.79517 0.122205
RightShoulder  4.49073 9.0543 29.826
RightArm  -13.8121 -33.5761 41.5548
RightForeArm  -27.3444 26.609 6.99397
RightHand  -0.339645 2.24108 -5.35906
LeftUpLeg  4.39807 0.5529 0.381907
LeftLeg  -5.08892 20.2793 -2.64136
LeftFoot  0.376591 0.125586 -1.2463
LeftToes  4.7633e-008 1.48299e-008 1.30754e-009
421
root  -3.9342 40.9473 -0.095299 -167.254 -83.7999 168.889
RightUpLeg  1.96313 -2.5669 -3.70327
RightLeg  0.475476 -13.2261 -0.167505
RightFoot  -1.80212 -0.378759 4.3886
RightToes  -3.10096e-008 1.75238e-005 3.56266e-009
Spine  -1.74184 -7.1662 -9.2244
Spine1  6.18037 -10.4611 14.7056
HEad  -27.4735 8.43673 -14.1444
LeftShoulder1  1.81442 -4.79197 -15.0406
LeftArm  -56.0062 -64.7189 6.16544
LeftForeArm  -28.907 -25.274 -6.72427
LeftHand  -0.0242378 -0.692847 0.546091
RightShoulder  4.43795 8.93338 29.7479
RightArm  -12.9194 -33.3503 41.0133
RightForeArm  -26.3946 26.0632 6.825
RightHand  -0.357138 2.15277 -5.68351
LeftUpLeg  4.91462 0.663445 0.787093
LeftLeg  -5.70474 18.4734 -2.66179
LeftFoot  0.682861 0.183061 -1.77697
LeftToes  4.7633e-008 1.48299e-008 1.30754e-009
422
root  -4.09561 40.9577 -0.323529 -164.601 -84.5149 166.275
RightUpLeg  2.39952 -2.65277 -3.56489
RightLeg  0.345267 -13.6833 0.00589889
RightFoot  -2.02871 -0.36567 4.31752
RightToes  -3.10096e-008 1.75238e-005 3.56266e-009
Spine  -2.58729 -6.00231 -8.00521
Spine1  5.34677 -8.77468 13.2324
HEad  -27.5032 5.1251 -13.5748
LeftShoulder1  1.7679 -4.42353 -15.5094
LeftArm  -69.4919 -58.4021 6.31616
LeftForeArm  -23.9059 -25.933 -6.68754
LeftHand  -0.0510653 -0.201169 1.08506
RightShoulder  4.401 8.90652 29.5229
RightArm  -12.4631 -32.5987 40.3597
RightForeArm  -25.5807 25.4142 6.63766
RightHand  -0.348594 2.18937 -5.52922
LeftUpLeg  5.21736 0.65882 0.9906
LeftLeg  -6.0391 17.9311 -2.55905
LeftFoot  0.896103 0.248316 -2.36857
LeftToes  4.7633e-008 1.48299e-008 1.30754e-009
423
root  -4.24698 40.9539 -0.483141 -163.067 -84.9073 164.652
RightUpLeg  2.73662 -2.60299 -3.37688
RightLeg  0.517577 -14.0685 -0.072605
RightFoot  -2.31165 -0.367278 4.44817
RightToes  -3.10096e-008 1.75238e-005 3.56266e-009
Spine  -2.99325 -5.01166 -6.30951
Spine1  4.44699 -7.25278 11.2497
HEad  -26.484 3.70812 -13.2162
LeftShoulder1  1.6748 -3.84861 -16.0214
LeftArm  -79.8638 -50.951 5.99757
LeftForeArm  -21.0298 -27.9129 -7.05048
LeftHand  -0.0674897 -0.0563667 1.4648
RightShoulder  4.44282 8.97158 29.6765
RightArm  -10.8453 -31.5168 39.0205
RightForeArm  -24.3097 25.0258 6.49563
RightHand  -0.362622 2.28559 -5.67044
LeftUpLeg  5.62438 0.659719 1.1238
LeftLeg  -6.24913 17.6457 -2.45589
LeftFoot  0.933385 0.268827 -2.5532
LeftToes  4.7633e-008 1.48299e-008 1.30754e-009
424
root  -4.39392 40.9484 -0.601808 -163.097 -84.7259 164.691
RightUpLeg  2.9419 -2.60839 -3.29164
RightLeg  0.566953 -13.7632 -0.0792111
RightFoot  -2.52836 -0.35635 4.39777
RightToes  -3.10096e-008 1.75238e-005 3.56266e-009
Spine  -3.19728 -4.15445 -5.03437
Spine1  3.66553 -6.05891 9.94644
HEad  -26.5446 3.9921 -13.3791
LeftShoulder1  1.66999 -3.66733 -16.5736
LeftArm  -86.8719 -41.1868 5.92823
LeftForeArm  -20.2146 -30.1624 -7.58246
LeftHand  -0.0739214 0.559399 1.71772
RightShoulder  4.38617 8.91343 29.3796
RightArm  -10.4578 -29.7404 38.3817
RightForeArm  -22.4818 24.5144 6.30146
RightHand  -0.438577 2.61572 -6.56725
LeftUpLeg  6.02876 0.496908 1.08071
LeftLeg  -6.58198 18.1057 -2.33181
LeftFoot  1.02577 0.272237 -2.57064
LeftToes  4.7633e-008 1.48299e-008 1.30754e-009
425
root  -4.51866 40.9452 -0.676348 -165.718 -83.9496 167.352
RightUpLeg  3.07369 -2.50982 -3.15956
RightLeg  0.41722 -13.0327 -0.0619781
RightFoot  -2.57986 -0.340971 4.21883
RightToes  -3.10096e-008 1.75238e-005 3.56266e-009
Spine  -3.27355 -3.31068 -3.94478
Spine1  3.24977 -4.99916 8.90201
HEad  -26.786 4.83877 -13.3085
LeftShoulder1  1.49178 -2.97468 -16.2931
LeftArm  -91.8236 -30.4063 4.74264
LeftForeArm  -18.0509 -31.4335 -7.82317
LeftHand  -0.0844312 0.527551 1.97116
RightShoulder  4.23674 8.59903 29.0579
RightArm  -9.95361 -27.8282 37.6916
RightForeArm  -22.1491 25.184 6.44465
RightHand  -0.434007 2.70612 -6.49992
LeftUpLeg  6.41354 0.638958 1.2271
LeftLeg  -6.82962 18.7682 -2.5008
LeftFoot  0.946597 0.296206 -2.80532
LeftToes  4.7633e-008 1.48299e-008 1.30754e-009
426
root  -4.64887 40.9394 -0.727553 -168.318 -82.9661 170.143
RightUpLeg  3.07178 -2.46584 -3.06526
RightLeg  0.167487 -12.0827 0.0666683
RightFoot  -2.58441 -0.33487 4.12894
RightToes  -3.10096e-008 1.75238e-005 3.56266e-009
Spine  -3.36241 -2.65329 -3.39424
Spine1  2.73416 -4.23786 8.54999
HEad  -27.4067 5.02145 -13.5154
LeftShoulder1  1.46397 -2.88295 -16.1831
LeftArm  -91.3781 -16.7366 3.71889
LeftForeArm  -19.6368 -32.4395 -8.16857
LeftHand  -0.103784 0.797172 2.55875
RightShoulder  4.13928 8.32964 29.0336
RightArm  -9.9065 -26.0187 36.85
RightForeArm  -21.7658 26.1379 6.65258
RightHand  -0.291557 4.2869 -3.74531
LeftUpLeg  6.71311 0.613984 1.25921
LeftLeg  -7.17389 19.8446 -2.59063
LeftFoot  0.842169 0.308404 -2.93814
LeftToes  4.7633e-008 1.48299e-008 1.30754e-009
427
root  -4.77557 40.9276 -0.740804 -171.464 -81.5199 173.386
RightUpLeg  3.01065 -2.19925 -2.84177
RightLeg  0.110058 -10.8823 -0.0258684
RightFoot  -2.63188 -0.326821 3.98496
RightToes  -3.10096e-008 1.75238e-005 3.56266e-009
Spine  -3.3904 -2.09114 -3.0193
Spine1  2.8932 -3.65642 8.30148
HEad  -28.3144 6.61989 -12.8926
LeftShoulder1  1.32044 -2.30947 -15.9098
LeftArm  -88.7186 -2.05989 1.96419
LeftForeArm  -22.5595 -32.715 -8.37846
LeftHand  -0.186886 0.772005 4.61034
RightShoulder  4.0809 8.08282 29.2799
RightArm  -10.3283 -23.8036 36.0266
RightForeArm  -21.0391 26.6578 6.74926
RightHand  -0.305539 4.5912 -3.83315
LeftUpLeg  7.12783 0.726107 1.34855
LeftLeg  -7.46707 21.2317 -2.7936
LeftFoot  0.635961 0.311495 -3.0062
LeftToes  4.7633e-008 1.48299e-008 1.30754e-009
428
root  -4.86954 40.9156 -0.721762 -174.212 -79.8643 176.354
RightUpLeg  2.79421 -1.79036 -2.52074
RightLeg  -0.0898096 -9.69065 -0.149051
RightFoot  -2.50032 -0.323734 3.90798
RightToes  -3.10096e-008 1.75238e-005 3.56266e-009
Spine  -3.49849 -1.24167 -2.9488
Spine1  3.1667 -2.87075 8.5143
HEad  -29.3853 7.77381 -12.1699
LeftShoulder1  1.00133 -1.10154 -14.8989
LeftArm  -86.3676 11.8102 -3.34037
LeftForeArm  -23.3849 -33.7311 -8.70342
LeftHand  -0.299015 -0.371383 6.11453
RightShoulder  3.91347 7.65919 29.1179
RightArm  -11.9819 -22.8449 35.6803
RightForeArm  -24.4879 29.1534 7.51534
RightHand  -0.255994 3.60302 -3.56309
LeftUpLeg  7.29943 0.93049 1.51433
LeftLeg  -7.60147 22.7687 -3.04446
LeftFoot  0.380882 0.301028 -2.95562
LeftToes  4.7633e-008 1.48299e-008 1.30754e-009
